<svg xmlns="http://www.w3.org/2000/svg">
  <defs>
    <symbol id="facebook" viewBox="0 0 24 24">
      <g class="nc-icon-wrapper" fill="currentColor">
        <path fill="currentColor" d="M9.03153,23L9,13H5V9h4V6.5C9,2.7886,11.29832,1,14.60914,1c1.58592,0,2.94893,0.11807,3.34615,0.17085 v3.87863l-2.29623,0.00104c-1.80061,0-2.14925,0.85562-2.14925,2.11119V9H18.75l-2,4h-3.24019v10H9.03153z" />
      </g>
    </symbol>
    <symbol id="twitter" viewBox="0 0 24 24">
      <g class="nc-icon-wrapper" fill="currentColor">
        <path fill="currentColor" d="M24,4.6c-0.9,0.4-1.8,0.7-2.8,0.8c1-0.6,1.8-1.6,2.2-2.7c-1,0.6-2,1-3.1,1.2c-0.9-1-2.2-1.6-3.6-1.6 c-2.7,0-4.9,2.2-4.9,4.9c0,0.4,0,0.8,0.1,1.1C7.7,8.1,4.1,6.1,1.7,3.1C1.2,3.9,1,4.7,1,5.6c0,1.7,0.9,3.2,2.2,4.1 C2.4,9.7,1.6,9.5,1,9.1c0,0,0,0,0,0.1c0,2.4,1.7,4.4,3.9,4.8c-0.4,0.1-0.8,0.2-1.3,0.2c-0.3,0-0.6,0-0.9-0.1c0.6,2,2.4,3.4,4.6,3.4 c-1.7,1.3-3.8,2.1-6.1,2.1c-0.4,0-0.8,0-1.2-0.1c2.2,1.4,4.8,2.2,7.5,2.2c9.1,0,14-7.5,14-14c0-0.2,0-0.4,0-0.6 C22.5,6.4,23.3,5.5,24,4.6z" />
      </g>
    </symbol>
    <symbol id="instagram" viewBox="0 0 24 24">
      <g class="nc-icon-wrapper" fill="currentColor">
        <path fill="currentColor" d="M12,2.162c3.204,0,3.584,0.012,4.849,0.07c1.366,0.062,2.633,0.336,3.608,1.311 c0.975,0.975,1.249,2.242,1.311,3.608c0.058,1.265,0.07,1.645,0.07,4.849s-0.012,3.584-0.07,4.849 c-0.062,1.366-0.336,2.633-1.311,3.608c-0.975,0.975-2.242,1.249-3.608,1.311c-1.265,0.058-1.645,0.07-4.849,0.07 s-3.584-0.012-4.849-0.07c-1.366-0.062-2.633-0.336-3.608-1.311c-0.975-0.975-1.249-2.242-1.311-3.608 c-0.058-1.265-0.07-1.645-0.07-4.849s0.012-3.584,0.07-4.849c0.062-1.366,0.336-2.633,1.311-3.608 c0.975-0.975,2.242-1.249,3.608-1.311C8.416,2.174,8.796,2.162,12,2.162 M12,0C8.741,0,8.332,0.014,7.052,0.072 c-1.95,0.089-3.663,0.567-5.038,1.942C0.639,3.389,0.161,5.102,0.072,7.052C0.014,8.332,0,8.741,0,12 c0,3.259,0.014,3.668,0.072,4.948c0.089,1.95,0.567,3.663,1.942,5.038c1.375,1.375,3.088,1.853,5.038,1.942 C8.332,23.986,8.741,24,12,24s3.668-0.014,4.948-0.072c1.95-0.089,3.663-0.567,5.038-1.942c1.375-1.375,1.853-3.088,1.942-5.038 C23.986,15.668,24,15.259,24,12s-0.014-3.668-0.072-4.948c-0.089-1.95-0.567-3.663-1.942-5.038 c-1.375-1.375-3.088-1.853-5.038-1.942C15.668,0.014,15.259,0,12,0L12,0z" />
        <path data-color="color-2" d="M12,5.838c-3.403,0-6.162,2.759-6.162,6.162S8.597,18.162,12,18.162s6.162-2.759,6.162-6.162 S15.403,5.838,12,5.838z M12,16c-2.209,0-4-1.791-4-4s1.791-4,4-4s4,1.791,4,4S14.209,16,12,16z" />
        <circle data-color="color-2" cx="18.406" cy="5.594" r="1.44" />
      </g>
    </symbol>
    <symbol id="linkedin" viewBox="0 0 24 24">
      <g transform="translate(1.000000, 1.000000)" fill="currentColor">
        <polygon points="4.875 21.625 0.5 21.625 0.5 7.25 5 7.25 5 21.625"></polygon>
        <path d="M2.625,5.25 C1.25,5.25 0,4.125 0,2.625 C0,1.25 1.125,0 2.625,0 C4,0 5.25,1.125 5.25,2.625 C5.25,4.125 4.125,5.25 2.625,5.25 Z" ></path>
        <path d="M21.625,21.625 L17.125,21.625 L17.125,14.625 C17.125,13 17.125,10.875 14.875,10.875 C12.5,10.875 12.25,12.625 12.25,14.5 L12.25,21.625 L7.75,21.625 L7.75,7.25 L12,7.25 L12,9.25 L12,9.25 C12.625,8.125 14,7 16.25,7 C20.75,7 21.625,10 21.625,13.875 L21.625,21.625 Z"></path>
      </g>
    </symbol>
    <symbol id="youtube" viewBox="0 0 24 24">
      <g class="nc-icon-wrapper" fill="currentColor">
        <path fill="currentColor" d="M23.8,7.2c0,0-0.2-1.7-1-2.4c-0.9-1-1.9-1-2.4-1C17,3.6,12,3.6,12,3.6h0c0,0-5,0-8.4,0.2 c-0.5,0.1-1.5,0.1-2.4,1c-0.7,0.7-1,2.4-1,2.4S0,9.1,0,11.1v1.8c0,1.9,0.2,3.9,0.2,3.9s0.2,1.7,1,2.4c0.9,1,2.1,0.9,2.6,1 c1.9,0.2,8.2,0.2,8.2,0.2s5,0,8.4-0.3c0.5-0.1,1.5-0.1,2.4-1c0.7-0.7,1-2.4,1-2.4s0.2-1.9,0.2-3.9v-1.8C24,9.1,23.8,7.2,23.8,7.2z M9.5,15.1l0-6.7l6.5,3.4L9.5,15.1z" />
      </g>
    </symbol>
    <symbol id="search" viewBox="0 0 24 24">
      <g class="nc-icon-wrapper" fill="currentColor">
        <path d="M15.5 14h-.79l-.28-.27C15.41 12.59 16 11.11 16 9.5 16 5.91 13.09 3 9.5 3S3 5.91 3 9.5 5.91 16 9.5 16c1.61 0 3.09-.59 4.23-1.57l.27.28v.79l5 4.99L20.49 19l-4.99-5zm-6 0C7.01 14 5 11.99 5 9.5S7.01 5 9.5 5 14 7.01 14 9.5 11.99 14 9.5 14z" />
      </g>
    </symbol>

    <symbol id="address" viewBox="0 0 24 24">
      <g class="nc-icon-wrapper" fill="currentColor">
        <path d="M12,14.817A6.848,6.848,0,0,1,19,8a7.293,7.293,0,0,1,2.438.43l-8.8-7.2a1,1,0,0,0-1.266,0l-11,9a1,1,0,0,0,1.266,1.548L3,10.656V22a1,1,0,0,0,1,1H16.753C15.191,21.478,12,17.981,12,14.817Z" fill="currentColor" />
        <path d="M19,10a4.868,4.868,0,0,0-5,4.817c0,2.716,3.869,6.486,4.31,6.907l.69.659.69-.659C20.131,21.3,24,17.533,24,14.817A4.868,4.868,0,0,0,19,10Zm0,7a2,2,0,1,1,2-2A2,2,0,0,1,19,17Z" data-color="color-2" />
      </g>
    </symbol>
    <symbol id="phone" viewBox="0 0 24 24">
      <g class="nc-icon-wrapper" fill="currentColor">
        <path d="M15.639,14.407l-2.355,2.321a19.111,19.111,0,0,1-3.4-2.613,19.353,19.353,0,0,1-2.612-3.4L9.591,8.36a1.01,1.01,0,0,0,.208-1.1L7.382,1.614A1.009,1.009,0,0,0,6.2,1.036L1.756,2.209A1.007,1.007,0,0,0,1,3.218,21.337,21.337,0,0,0,7.039,16.959,21.339,21.339,0,0,0,20.784,23a1.011,1.011,0,0,0,1.01-.756l1.172-4.44a1.009,1.009,0,0,0-.577-1.186L16.748,14.2A1.009,1.009,0,0,0,15.639,14.407Z" fill="currentColor" />
      </g>
    </symbol>
    <symbol id="email" viewBox="0 0 24 24">
      <g class="nc-icon-wrapper" fill="currentColor">
        <path d="M21,2H3A3,3,0,0,0,0,5V19a3,3,0,0,0,3,3H21a3,3,0,0,0,3-3V5A3,3,0,0,0,21,2Zm-.3,4.8-8,7a1.854,1.854,0,0,1-.7.2,1.854,1.854,0,0,1-.7-.2l-8-7A.992.992,0,0,1,4.6,5.3l7.3,6.4,7.3-6.4a.972.972,0,0,1,1.4.1A.9.9,0,0,1,20.7,6.8Z" fill="currentColor" />
      </g>
    </symbol>
    <symbol id="arrow" viewBox="0 0 24 24">
      <g class="nc-icon-wrapper" fill="currentColor">
        <path fill="currentColor" d="M22.707,11.293L15,3.586L13.586,5l6,6H2c-0.553,0-1,0.448-1,1s0.447,1,1,1h17.586l-6,6L15,20.414 l7.707-7.707C23.098,12.316,23.098,11.684,22.707,11.293z" />
      </g>
    </symbol>
    <symbol id="warning" viewBox="0 0 24 24">
      <g class="nc-icon-wrapper" fill="currentColor">
        <path fill="currentColor" d="M23.865,20.5l-11-19a1.04,1.04,0,0,0-1.73,0l-11,19A1,1,0,0,0,1,22H23a1,1,0,0,0,.865-1.5ZM13.206,8l-.473,6.6H11.267L10.821,8ZM12,19a1.467,1.467,0,1,1,1.467-1.467A1.467,1.467,0,0,1,12,19Z" />
      </g>
    </symbol>
  </defs>
</svg>
